C:\GBW_MyPrograms\KinderuniversiteitApp\Resultaten\TymenKool\Reus_v1.mot
version=1
nRows=18
nColumns=31
inDegrees=yes
endheader
                time	         pelvis_tilt	           pelvis_tx	           pelvis_ty	       hip_flexion_r	        knee_angle_r	       ankle_angle_r	       hip_flexion_l	        knee_angle_l	       ankle_angle_l	    lumbar_extension	          arm_flex_r	          arm_flex_l	hamstrings_r/activation	bifemsh_r/activation	glut_max_r/activation	iliopsoas_r/activation	rect_fem_r/activation	  vasti_r/activation	gastroc_r/activation	 soleus_r/activation	tib_ant_r/activation	hamstrings_l/activation	bifemsh_l/activation	glut_max_l/activation	iliopsoas_l/activation	rect_fem_l/activation	  vasti_l/activation	gastroc_l/activation	 soleus_l/activation	tib_ant_l/activation	
          1.99999966	        -12.32127828	          5.30631930	          5.69853468	         31.10311257	        -13.89855558	        -23.26020710	         28.64524598	        -33.07945942	         -5.64453109	        -15.49335077	        -56.36720573	        -56.36720572	          0.99332587	          0.79062265	          0.89469346	          0.16051218	          0.10334973	          0.41641540	          0.86912889	          0.83907938	          0.13081456	          0.65460626	          0.92331041	          0.12600869	          0.89142188	          0.74494040	          0.30653065	          0.74894608	          0.62854576	          0.30087119	
          2.01999966	        -12.56601592	          5.35462622	          5.67435646	         31.79745146	        -15.82019944	        -21.10240043	         29.07609015	        -32.81872334	         -8.69831364	        -15.44154047	        -55.43963657	        -55.43963656	          0.98267174	          0.59920677	          0.95232678	          0.12218672	          0.14553909	          0.74725660	          0.94215230	          0.93067038	          0.09821570	          0.49109161	          0.69330172	          0.17107495	          0.80177095	          0.88961054	          0.70266825	          0.57088377	          0.47236713	          0.22502441	
          2.03999966	        -12.68486926	          5.40165182	          5.65368286	         32.21535834	        -17.82488475	        -17.37186848	         29.88972394	        -35.14142836	         -7.85357334	        -15.57933924	        -53.53289794	        -53.53289794	          0.98859496	          0.57905922	          0.97545926	          0.09400181	          0.11832652	          0.71946001	          0.97245965	          0.96965108	          0.07397773	          0.36847599	          0.52229885	          0.12897249	          0.91308661	          0.95097021	          0.59000690	          0.42988414	          0.35467261	          0.51528003	
          2.05999965	        -12.71745270	          5.44956357	          5.63454804	         32.23395674	        -19.23301369	        -14.12051172	         30.52148315	        -37.13119051	         -7.13681527	        -15.78617662	        -51.16312656	        -51.16312656	          0.99165896	          0.54151006	          0.98471328	          0.07377588	          0.09746054	          0.61701094	          0.98373792	          0.98668040	          0.05585985	          0.27651284	          0.39433035	          0.09785704	          0.96153808	          0.97790499	          0.82390086	          0.50966576	          0.50788842	          0.38688388	
          2.07999965	        -12.82752985	          5.49567177	          5.61739457	         32.12466471	        -20.15151472	        -11.38327997	         31.21419654	        -38.87486147	         -7.09447071	        -15.93853692	        -47.88814277	        -47.88814278	          0.99304212	          0.42337072	          0.98808629	          0.06147604	          0.08451627	          0.73550573	          0.98622942	          0.99374174	          0.05185489	          0.20774034	          0.29642589	          0.07526326	          0.98185424	          0.98965048	          0.92439385	          0.60133424	          0.38089109	          0.29054769	
          2.09999965	        -13.07780091	          5.53824163	          5.60281458	         31.99582781	        -20.61175380	         -9.21129594	         32.08446409	        -40.49728433	         -7.53409851	        -15.99209874	        -43.44310892	        -43.44310894	          0.99485367	          0.32420226	          0.99165846	          0.05591515	          0.07369715	          0.88266264	          0.96774425	          0.99642738	          0.05227295	          0.15592004	          0.22699047	          0.05858310	          0.99001199	          0.99268797	          0.96754498	          0.45120219	          0.28583430	          0.69575974	
          2.11999964	        -13.37869727	          5.57804210	          5.59043072	         31.73704133	        -20.64571026	         -7.34722940	         32.90149284	        -41.49078120	         -7.72828928	        -16.00713207	        -38.10062747	        -38.10062749	          0.99569120	          0.24700462	          0.99325001	          0.05457553	          0.06867215	          0.94756892	          0.72757795	          0.99704017	          0.05264650	          0.11745477	          0.56772815	          0.05332389	          0.99344183	          0.99297854	          0.73647157	          0.33842455	          0.21420556	          0.54568480	
          2.13999964	        -13.68300239	          5.61546481	          5.57896400	         31.30568550	        -20.30784277	         -5.58147771	         33.75882478	        -42.56247094	         -7.75339533	        -16.00758345	        -32.19976094	        -32.19976096	          0.99636632	          0.18792762	          0.99420299	          0.05374960	          0.06588722	          0.97557470	          0.54716793	          0.99676164	          0.05319992	          0.08846790	          0.49538721	          0.05277214	          0.99520036	          0.99249321	          0.55253354	          0.25417764	          0.16019547	          0.48747536	
          2.15999964	        -13.97157013	          5.65193316	          5.56670621	         30.66723684	        -19.62841082	         -3.71854502	         34.57775026	        -43.34735592	         -7.62879491	        -15.97524544	        -26.22565131	        -26.22565133	          0.99709046	          0.14320134	          0.99548731	          0.05286070	          0.06315853	          0.98727564	          0.41115451	          0.99412560	          0.05428339	          0.06621728	          0.37496958	          0.05207152	          0.99476436	          0.99228775	          0.73464204	          0.19085562	          0.12003425	          0.37282362	
          2.17999963	        -14.20118588	          5.68776575	          5.55383508	         29.75986300	        -18.57897086	         -1.75476929	         35.33795455	        -44.07263679	         -7.55754833	        -15.96646723	        -20.26414395	        -20.26414396	          0.99755164	          0.10963266	          0.99626680	          0.05248032	          0.06064392	          0.99139033	          0.30887830	          0.74576661	          0.06525845	          0.05166665	          0.28140617	          0.05231617	          0.99542290	          0.99428822	          0.88433830	          0.14312547	          0.09027249	          0.27976698	
          2.19999963	        -14.34771255	          5.72362523	          5.54033855	         28.53384795	        -17.12502673	          0.31466547	         35.98920936	        -44.80771686	         -7.29883352	        -16.00972687	        -14.41151081	        -14.41151082	          0.99787176	          0.08481954	          0.99701974	          0.05175194	          0.06056411	          0.99313607	          0.23201446	          0.56007228	          0.59504924	          0.05125351	          0.21101082	          0.05243712	          0.99493146	          0.99600000	          0.93863242	          0.10845589	          0.10106474	          0.20985265	
          2.21999963	        -14.74540740	          5.75619828	          5.52959234	         28.27422244	        -16.69836570	          1.37779030	         36.87511453	        -45.35207855	         -7.49881612	        -15.84584630	         -9.21093262	         -9.21093264	          0.99791884	          0.06728672	          0.99765241	          0.05166991	          0.05884778	          0.99462382	          0.17447581	          0.42019972	          0.81690983	          0.05004494	          0.15838006	          0.05261831	          0.99518771	          0.99726392	          0.91202792	          0.13029322	          0.27734402	          0.15739984	
          2.23999962	        -15.14462531	          5.78857392	          5.52472994	         28.70234132	        -17.43547932	          2.18483256	         37.66805299	        -45.68344729	         -8.18860605	        -15.75615911	         -5.12561072	         -5.12561074	          0.99792013	          0.06010818	          0.99763133	          0.05181953	          0.06041713	          0.99500412	          0.13143335	          0.31530770	          0.73514396	          0.05021714	          0.11899918	          0.05245005	          0.99503307	          0.99721648	          0.96217001	          0.09783857	          0.35287888	          0.11806778	
          2.25999962	        -15.26220373	          5.82583112	          5.52365549	         28.79932013	        -18.20915932	          3.01585685	         38.05462908	        -45.95999904	         -8.87263198	        -15.95344753	         -2.19306460	         -2.19306463	          0.99774357	          0.05846872	          0.99757971	          0.05160111	          0.06069210	          0.99543064	          0.09921747	          0.36715770	          0.58239475	          0.05826826	          0.08975252	          0.05133132	          0.99803406	          0.99774741	          0.98401833	          0.07366034	          0.40020809	          0.08848787	
          2.27999962	        -15.47891142	          5.86406682	          5.52272241	         28.93323398	        -18.86028965	          3.68293460	         38.59488894	        -46.30890456	         -9.80676889	        -16.01677478	          0.36031810	          0.36031807	          0.99774664	          0.05741296	          0.99766725	          0.05159000	          0.06259689	          0.99591538	          0.07479135	          0.72356700	          0.44578403	          0.05009399	          0.06765068	          0.05001070	          0.80330111	          0.99855999	          0.99301424	          0.20899965	          0.30012844	          0.06636597	
          2.29999961	        -15.71477543	          5.90511561	          5.52231765	         28.89215228	        -19.19272163	          4.14916246	         39.15855720	        -46.70264596	        -10.88490474	        -16.00816713	          2.32399078	          2.32399074	          0.99777706	          0.05549948	          0.99795322	          0.05111854	          0.06053376	          0.99656613	          0.05749291	          0.87890582	          0.33859498	          0.05031738	          0.05090175	          0.59249616	          0.60300775	          0.99902209	          0.99706302	          0.15690790	          0.22503691	          0.05005126	
          2.31999961	        -15.93811759	          5.95144886	          5.52302950	         28.60910923	        -19.20828242	          4.50971573	         39.57210349	        -47.01186638	        -11.78908165	        -15.91884096	          3.32908121	          3.32908117	          0.99773969	          0.05538646	          0.99779322	          0.05135861	          0.06480658	          0.99662620	          0.05351368	          0.94606079	          0.25647877	          0.05037482	          0.05066237	          0.82517360	          0.45245118	          0.99878858	          0.99866662	          0.11785410	          0.16867347	          0.55922852	
          2.33999961	        -16.51909034	          6.00185576	          5.52153813	         28.53854221	        -19.00498985	          4.80427369	         40.07954587	        -46.82520801	        -11.18579751	        -15.29020890	          3.57282346	          3.57282342	          0.99797197	          0.05476678	          0.99799748	          0.05108730	          0.06059732	          0.99687861	          0.05179069	          0.97469365	          0.19548002	          0.05001687	          0.05005845	          0.92496782	          0.33970206	          0.99915011	          0.99950326	          0.08845578	          0.12641214	          0.81112267	
